<svg xmlns="http://www.w3.org/2000/svg" xmlns:xlink="http://www.w3.org/1999/xlink" viewBox="0 0 33.7 40.67"><defs><style>.cls-1{isolation:isolate;}.cls-2{fill:url(#linear-gradient);}.cls-3{fill:url(#linear-gradient-2);}.cls-4{fill:url(#linear-gradient-3);}.cls-5{opacity:0.06;}.cls-5,.cls-6,.cls-9{mix-blend-mode:multiply;}.cls-6{opacity:0.14;}.cls-7,.cls-8{fill:#fff;mix-blend-mode:screen;}.cls-7{opacity:0.3;}.cls-8{opacity:0.5;}.cls-9{opacity:0.2;}</style><linearGradient id="linear-gradient" x1="16.84" y1="0.51" x2="16.84" y2="22.2" gradientUnits="userSpaceOnUse"><stop offset="0" stop-color="#fc7300"/><stop offset="1" stop-color="#f8007a"/></linearGradient><linearGradient id="linear-gradient-2" x1="16.85" y1="24.89" x2="16.85" y2="40.05" xlink:href="#linear-gradient"/><linearGradient id="linear-gradient-3" x1="16.85" y1="11.65" x2="16.85" y2="30.02" xlink:href="#linear-gradient"/></defs><title>logo</title><g class="cls-1"><g id="Layer_2" data-name="Layer 2"><g id="Layer_3" data-name="Layer 3"><path class="cls-2" d="M33.68,24.22c0,.09,0,.19,0,.28s0,.12,0,.18c0,.25,0,.5-.05.74v.06c0,.11,0,.23,0,.34s0,.07,0,.11,0,.33-.07.5a0,0,0,0,1,0,0c0,.28-.09.55-.14.81a0,0,0,0,0,0,0c0,.12,0,.24-.08.36-.08.32-.16.65-.25,1s-.13.44-.21.66c0-.15-.1-.3-.15-.44l-.12-.31h0l0-.06,0-.07c-.06-.15-.12-.29-.18-.43a1.69,1.69,0,0,0-.08-.18h0l0,0h0a.12.12,0,0,0,0-.06q-.09-.21-.2-.41l0-.1,0-.08c0-.08-.07-.15-.11-.22l-.15-.26-.07-.13s0,0,0,0l-.08-.13c-.09-.18-.2-.35-.31-.52s-.26-.41-.4-.61l-.07-.1-.39-.54-.36-.45-.19-.23-.13-.15-.32-.36-.06-.07-.48-.5L16.85,10.85,4.93,22.76c-.24.24-.46.48-.68.72l-.37.44-.13.15c-.15.18-.29.37-.43.56l-.12.16L3,25.08l-.15.23-.08.11c-.14.22-.29.45-.42.67l-.19.32,0,.06-.18.34-.22.43a.33.33,0,0,0,0,.08l-.06.12a.37.37,0,0,0,0,.07l-.06.12c0,.1-.09.2-.13.31a2.32,2.32,0,0,0-.12.27l0,.09v0c-.13.31-.24.62-.34.94-.08-.22-.14-.44-.21-.66s-.09-.3-.13-.45-.08-.31-.12-.47-.08-.35-.12-.53-.07-.35-.1-.53-.06-.36-.08-.54,0-.3-.05-.45l0-.16c0-.15,0-.31,0-.47H0c0-.17,0-.32,0-.49s0-.45,0-.67,0-.64,0-1a16.73,16.73,0,0,1,4.9-11L16.83,0l0,0L28.76,11.91a16.5,16.5,0,0,1,2.31,2.88v0a16.65,16.65,0,0,1,2.59,8C33.69,23.31,33.7,23.76,33.68,24.22Z"/><path class="cls-3" d="M28.52,36a16.82,16.82,0,0,1-21,1.91l0,0A16.7,16.7,0,0,1,5.17,36l.46-.46L16.85,24.29,28.13,35.57h0l0,0Z"/><path class="cls-4" d="M32.79,29.25a16.69,16.69,0,0,1-2.41,4.62l-.31.4-.31.38c-.21.25-.43.5-.66.74l-.35.36a2.19,2.19,0,0,1-.23.22h0l-.35-.35,0,0h0L16.85,24.29,5.63,35.5,5.17,36a3,3,0,0,1-.24-.22,16.63,16.63,0,0,1-4-6.49c.1-.31.21-.62.34-.94v0l0-.09a2.32,2.32,0,0,1,.12-.27q.13-.31.28-.61c.08-.17.17-.34.25-.51s.26-.48.4-.72.28-.45.42-.67l0,0c.13-.2.28-.41.42-.61l.1-.14L3.78,24h0l.46-.55c.22-.24.45-.48.68-.72L16.85,10.85,28.76,22.76a16.84,16.84,0,0,1,3.39,4.86.19.19,0,0,1,0,.08l0,0h0a1.69,1.69,0,0,1,.08.18c.07.14.13.29.18.43a.88.88,0,0,1,.05.13h0l.12.31C32.69,29,32.74,29.1,32.79,29.25Z"/><path class="cls-5" d="M16.85,24.29,5.17,36l-.24-.22a16.46,16.46,0,0,1-1.62-1.87Z"/><path class="cls-5" d="M16.85,10.85,4.93,22.76c-.24.24-.46.48-.68.72l-.37.44-.13.15c-.15.18-.29.37-.43.56l-.12.16L3,25.08l-.15.23-.08.11c-.14.22-.29.45-.42.67s-.13.21-.19.32l0,.06-.18.34-.22.43a.33.33,0,0,0,0,.08l-.06.12a.37.37,0,0,0,0,.07l-.19.43a2.32,2.32,0,0,0-.12.27c-.14.35-.28.69-.39,1-.08-.22-.14-.44-.21-.66s-.09-.3-.13-.45-.08-.31-.12-.47-.08-.35-.12-.53-.07-.35-.1-.53-.06-.36-.08-.54,0-.3-.05-.45l0-.16c0-.15,0-.31,0-.47H0c0-.17,0-.32,0-.49s0-.45,0-.67,0-.64,0-1l.18-.13L14.46,12.55Z"/><path class="cls-5" d="M30.38,33.87l-.31.4-.31.38c-.21.25-.43.5-.66.74l-.34.36h0a2.19,2.19,0,0,1-.23.22h0l-.39-.39h0l0,0L16.85,24.29l2.27,1.61,10.81,7.66Z"/><path class="cls-5" d="M33.25,27.62c-.07.32-.16.65-.25,1s-.13.44-.21.66c0-.15-.1-.3-.15-.44s-.08-.21-.12-.31a1.29,1.29,0,0,0,0-.13c-.06-.15-.12-.29-.18-.43a1.69,1.69,0,0,0-.08-.18.17.17,0,0,0,0-.06.19.19,0,0,0,0-.08,16.17,16.17,0,0,0-1.86-3.11,16.29,16.29,0,0,0-1.53-1.76h0L16.85,10.85l2.36,1.69L33.29,22.59l.37.26h0c0,.32,0,.64,0,1,0,.13,0,.26,0,.4s0,.18,0,.28q0,.48-.06,1c0,.16,0,.31-.05.47s0,.33-.07.49-.1.56-.15.85Z"/><path class="cls-6" d="M28.17,35.61,16.85,24.29,5.63,35.5c.86-1,1.76-2,2.64-3s1.79-1.95,2.7-2.9,1.83-1.91,2.75-2.86l2.79-2.82.35-.35.35.35L20,26.79c.93,1,1.86,1.91,2.78,2.89s1.83,1.95,2.73,2.93S27.3,34.58,28.17,35.61Z"/><path class="cls-6" d="M32.21,27.75a16.86,16.86,0,0,0-3.45-5L16.85,10.84,4.93,22.76A16.74,16.74,0,0,0,1.25,28.3a16.1,16.1,0,0,1,2.94-5.1c.32-.38.67-.74,1-1.09L6.2,21l2-2.13c2.72-2.83,5.48-5.62,8.25-8.4l.35-.35.35.35,4,4.08c1.33,1.37,2.68,2.73,4,4.12l2,2.07,1,1,1,1A16.17,16.17,0,0,1,32.21,27.75Z"/><path class="cls-7" d="M28.17,35.61c-1-.87-2-1.78-3-2.66s-2-1.81-2.93-2.73-1.92-1.85-2.89-2.78L16.85,25l-2.48,2.45c-1,.92-1.89,1.84-2.86,2.74S9.58,32,8.6,32.87s-2,1.77-3,2.63L16.85,24.29Z"/><path class="cls-7" d="M32.21,27.75a17.46,17.46,0,0,0-3.36-4.56c-1.38-1.31-2.78-2.63-4.15-4s-2.74-2.67-4.11-4l-3.73-3.7q-4,4-8.06,7.91l-2.13,2c-.71.67-1.45,1.34-2.12,2A17.34,17.34,0,0,0,1.25,28.3a16.74,16.74,0,0,1,3.68-5.53L16.85,10.84,28.76,22.76A16.86,16.86,0,0,1,32.21,27.75Z"/><path class="cls-8" d="M16.83,0c-.14.18-1.35,1.63-3.22,3.66-1,1.09-2.15,2.33-3.42,3.66-.64.66-1.28,1.34-2,2l-2,2.08c-.34.34-.71.69-1,1s-.65.69-.95,1a16.82,16.82,0,0,0-1.59,2.23,17.86,17.86,0,0,0-1.9,4.48c-.2.69-.31,1.35-.42,1.93q0,.31-.08.59-.07.51-.1.93c0,.41,0,.76-.06,1S0,25,0,25c0-.17,0-.32,0-.49s0-.45,0-.67,0-.64,0-1a16.73,16.73,0,0,1,4.9-11Z"/><path class="cls-9" d="M33.25,27.62c-.07.32-.16.65-.25,1s-.13.44-.21.66a16.69,16.69,0,0,1-2.41,4.62l-.31.4-.31.38c-.21.25-.43.5-.66.74l-.34.36h0a2.19,2.19,0,0,1-.23.22h0a16.82,16.82,0,0,1-21,1.91l.33.19c.3.17.74.39,1.3.66a17.32,17.32,0,0,0,4.93,1.41,17.12,17.12,0,0,0,7.12-.55A17.21,17.21,0,0,0,24.94,38a16.69,16.69,0,0,0,3.18-2.42h0l.11-.1a16,16,0,0,0,1.69-1.91,15.61,15.61,0,0,0,.89-1.31,16.69,16.69,0,0,0,1.67-3.66.46.46,0,0,0,0-.08h0a17.76,17.76,0,0,0,.72-3.61,16.94,16.94,0,0,0,0-2.29c0-.38,0-.75-.09-1.11a17.56,17.56,0,0,0-.54-2.85,17.37,17.37,0,0,0-.75-2.12c-.26-.57-.46-1-.63-1.31l-.21-.4a16.65,16.65,0,0,1,2.59,8h0c0,.32,0,.64,0,1,0,.13,0,.26,0,.4s0,.18,0,.28q0,.48-.06,1c0,.16,0,.31-.05.47s0,.33-.07.49-.1.56-.15.85Z"/></g></g></g></svg>